<svg width="264" height="30" viewBox="0 0 264 30" fill="none" xmlns="http://www.w3.org/2000/svg">
<path d="M14.6956 30C12.4532 30 10.4244 29.6143 8.60913 28.843C6.82057 28.0441 5.28561 26.9559 4.00425 25.5785C2.72289 24.2011 1.73517 22.6033 1.0411 20.7851C0.347035 18.9669 0 17.0248 0 14.9587C0 12.8926 0.347035 10.9642 1.0411 9.17355C1.73517 7.35537 2.72289 5.75758 4.00425 4.38017C5.28561 3.00276 6.82057 1.92838 8.60913 1.15703C10.4244 0.385676 12.4532 0 14.6956 0C16.938 0 18.9534 0.385676 20.742 1.15703C22.5573 1.92838 24.1056 3.00276 25.3869 4.38017C26.6683 5.75758 27.656 7.35537 28.3501 9.17355C29.0441 10.9642 29.3912 12.8926 29.3912 14.9587C29.3912 17.0248 29.0441 18.9669 28.3501 20.7851C27.656 22.6033 26.6683 24.2011 25.3869 25.5785C24.1056 26.9559 22.5573 28.0441 20.742 28.843C18.9534 29.6143 16.938 30 14.6956 30ZM14.6956 24.7521C15.9769 24.7521 17.1649 24.5179 18.2594 24.0496C19.3539 23.5537 20.3015 22.865 21.1024 21.9835C21.9299 21.0744 22.5573 20.0275 22.9844 18.843C23.4382 17.6584 23.6651 16.3636 23.6651 14.9587C23.6651 13.5537 23.4382 12.259 22.9844 11.0744C22.5573 9.88981 21.9299 8.85675 21.1024 7.97521C20.3015 7.09366 19.3539 6.41873 18.2594 5.95042C17.1649 5.45455 15.9769 5.20661 14.6956 5.20661C13.4142 5.20661 12.2263 5.45455 11.1318 5.95042C10.0373 6.41873 9.07629 7.09366 8.24875 7.97521C7.4479 8.85675 6.82057 9.88981 6.36675 11.0744C5.93963 12.259 5.72607 13.5537 5.72607 14.9587C5.72607 16.3636 5.93963 17.6584 6.36675 18.843C6.82057 20.0275 7.4479 21.0744 8.24875 21.9835C9.07629 22.865 10.0373 23.5537 11.1318 24.0496C12.2263 24.5179 13.4142 24.7521 14.6956 24.7521Z" fill="#141415"/>
<path d="M32.1541 29.4629V8.96698C32.1541 7.39674 32.5145 5.978 33.2353 4.71079C33.9827 3.44357 34.9704 2.43806 36.1984 1.69426C37.4531 0.922907 38.8279 0.537231 40.3228 0.537231H50.4535V5.74385H40.9635C40.1092 5.74385 39.3751 6.06065 38.7611 6.69426C38.1738 7.32787 37.8802 8.08544 37.8802 8.96698V13.6364H49.0921V18.843H37.8802V29.4629H32.1541Z" fill="#141415"/>
<path d="M55.1785 29.4629V8.96698C55.1785 7.39674 55.5389 5.978 56.2597 4.71079C57.0071 3.44357 57.9948 2.43806 59.2228 1.69426C60.4775 0.922907 61.8523 0.537231 63.3472 0.537231H73.4779V5.74385H63.9879C63.1336 5.74385 62.3995 6.06065 61.7855 6.69426C61.1982 7.32787 60.9046 8.08544 60.9046 8.96698V13.6364H72.1165V18.843H60.9046V29.4629H55.1785Z" fill="#141415"/>
<path d="M77.9627 29.4629V24.2562H83.0081V5.74385H77.9627V0.537231H93.7795V5.74385H88.7341V24.2562H93.7795V29.4629H77.9627Z" fill="#141415"/>
<path d="M113.48 29.4629C111.291 29.4078 109.316 29.0083 107.554 28.2645C105.792 27.4932 104.284 26.4601 103.029 25.1653C101.775 23.843 100.8 22.3141 100.106 20.5786C99.4388 18.843 99.1051 16.9835 99.1051 15C99.1051 13.0166 99.4388 11.1571 100.106 9.42153C100.8 7.68599 101.775 6.17084 103.029 4.87608C104.284 3.55376 105.792 2.50693 107.554 1.73558C109.316 0.964229 111.291 0.564779 113.48 0.537231H117.845V5.74385H113.6C112.319 5.77139 111.145 6.01933 110.077 6.48764C109.009 6.95596 108.075 7.60335 107.274 8.42979C106.5 9.25624 105.899 10.2342 105.472 11.3637C105.045 12.4656 104.831 13.6777 104.831 15C104.831 16.3224 105.045 17.5483 105.472 18.6777C105.899 19.7797 106.5 20.7438 107.274 21.5703C108.075 22.3967 109.009 23.0441 110.077 23.5124C111.145 23.9808 112.319 24.2287 113.6 24.2562H117.845V29.4629H113.48Z" fill="#141415"/>
<path d="M130.899 29.4629C129.351 29.4629 127.936 29.0772 126.654 28.3058C125.4 27.5345 124.399 26.5014 123.651 25.2067C122.904 23.8843 122.53 22.4243 122.53 20.8265C122.53 19.6695 122.77 18.5813 123.251 17.562C123.731 16.5427 124.385 15.6474 125.213 14.8761C124.385 14.1047 123.731 13.2094 123.251 12.1901C122.77 11.1708 122.53 10.0965 122.53 8.96698C122.53 7.39674 122.89 5.978 123.611 4.71079C124.359 3.44357 125.346 2.43806 126.574 1.69426C127.829 0.922907 129.204 0.537231 130.699 0.537231H142.231V5.74385H131.339C130.779 5.74385 130.258 5.89536 129.778 6.19839C129.324 6.47387 128.95 6.85955 128.656 7.35541C128.39 7.82373 128.256 8.36092 128.256 8.96698C128.256 9.5455 128.39 10.0827 128.656 10.5786C128.95 11.0469 129.324 11.4325 129.778 11.7356C130.258 12.0111 130.779 12.1488 131.339 12.1488H140.869V17.3554H131.58C130.966 17.3554 130.405 17.5207 129.898 17.8513C129.391 18.1543 128.99 18.5675 128.697 19.091C128.403 19.6144 128.256 20.1929 128.256 20.8265C128.256 21.4601 128.403 22.0386 128.697 22.562C128.99 23.0854 129.391 23.4987 129.898 23.8017C130.405 24.1047 130.966 24.2562 131.58 24.2562H142.231V29.4629H130.899Z" fill="#141415"/>
<path d="M159.729 29.4629V24.2562H171.742C172.33 24.2562 172.863 24.1047 173.344 23.8017C173.824 23.4987 174.211 23.0992 174.505 22.6033C174.799 22.0799 174.946 21.5152 174.946 20.9091C174.946 20.2755 174.799 19.7108 174.505 19.2149C174.211 18.6915 173.824 18.2783 173.344 17.9752C172.863 17.6722 172.33 17.5207 171.742 17.5207H167.057C165.482 17.5207 164.054 17.1901 162.773 16.529C161.491 15.8678 160.464 14.9174 159.689 13.6777C158.942 12.4105 158.568 10.8954 158.568 9.13227C158.568 7.39674 158.929 5.89536 159.649 4.62814C160.37 3.33338 161.345 2.32787 162.572 1.61161C163.8 0.895359 165.162 0.537231 166.657 0.537231H178.83V5.74385H167.217C166.684 5.74385 166.19 5.89536 165.736 6.19839C165.282 6.47387 164.922 6.84577 164.655 7.31409C164.414 7.78241 164.294 8.30583 164.294 8.88434C164.294 9.46285 164.414 9.98627 164.655 10.4546C164.922 10.9229 165.282 11.2948 165.736 11.5703C166.19 11.8458 166.684 11.9835 167.217 11.9835H172.063C173.798 11.9835 175.306 12.3279 176.587 13.0166C177.869 13.7053 178.856 14.6695 179.55 15.9091C180.271 17.1488 180.632 18.5951 180.632 20.248C180.632 22.2039 180.258 23.8706 179.51 25.248C178.79 26.6254 177.802 27.6722 176.547 28.3885C175.319 29.1047 173.958 29.4629 172.463 29.4629H159.729Z" fill="#141415"/>
<path d="M194.366 29.4629V21.4876C192.631 21.102 191.096 20.3995 189.761 19.3802C188.453 18.3609 187.425 17.0524 186.678 15.4546C185.957 13.8292 185.597 11.9697 185.597 9.87607V0.537231H191.323V10.248C191.323 11.405 191.563 12.4656 192.044 13.4298C192.524 14.3664 193.205 15.124 194.086 15.7025C194.993 16.281 196.048 16.5703 197.249 16.5703C198.477 16.5703 199.532 16.281 200.413 15.7025C201.294 15.124 201.974 14.3664 202.455 13.4298C202.935 12.4656 203.176 11.405 203.176 10.248V0.537231H208.902V9.87607C208.902 11.9697 208.528 13.8292 207.78 15.4546C207.06 17.0524 206.032 18.3747 204.697 19.4215C203.389 20.4408 201.854 21.1295 200.092 21.4876V29.4629H194.366Z" fill="#141415"/>
<path d="M234.729 29.9587C233.074 29.9587 231.619 29.5731 230.364 28.8017C229.11 28.0028 228.135 26.956 227.441 25.6612C226.747 24.3389 226.4 22.8926 226.4 21.3224V7.97526C226.4 7.4794 226.28 7.02485 226.04 6.61163C225.799 6.1984 225.479 5.86783 225.079 5.61989C224.678 5.37196 224.238 5.24799 223.757 5.24799C223.277 5.24799 222.836 5.37196 222.436 5.61989C222.062 5.86783 221.755 6.1984 221.515 6.61163C221.275 7.02485 221.155 7.4794 221.155 7.97526V29.4629H215.428V8.67774C215.428 7.07995 215.776 5.63367 216.47 4.3389C217.164 3.04413 218.138 2.01108 219.393 1.23973C220.647 0.440829 222.102 0.0413818 223.757 0.0413818C225.439 0.0413818 226.907 0.440829 228.162 1.23973C229.417 2.01108 230.391 3.04413 231.085 4.3389C231.779 5.63367 232.126 7.07995 232.126 8.67774V22.0248C232.126 22.5207 232.246 22.9753 232.487 23.3885C232.727 23.8017 233.034 24.1323 233.408 24.3802C233.808 24.6282 234.248 24.7521 234.729 24.7521C235.209 24.7521 235.65 24.6282 236.05 24.3802C236.451 24.1323 236.771 23.8017 237.011 23.3885C237.252 22.9753 237.372 22.5207 237.372 22.0248V0.537247H243.098V21.3224C243.098 22.8926 242.751 24.3389 242.057 25.6612C241.363 26.956 240.388 28.0028 239.134 28.8017C237.879 29.5731 236.411 29.9587 234.729 29.9587Z" fill="#141415"/>
<path d="M259.635 29.4629C257.446 29.4078 255.471 29.0083 253.709 28.2645C251.947 27.4932 250.439 26.4601 249.184 25.1653C247.93 23.843 246.955 22.3141 246.261 20.5786C245.594 18.843 245.26 16.9835 245.26 15C245.26 13.0166 245.594 11.1571 246.261 9.42153C246.955 7.68599 247.93 6.17084 249.184 4.87608C250.439 3.55376 251.947 2.50693 253.709 1.73558C255.471 0.964229 257.446 0.564779 259.635 0.537231H264V5.74385H259.756C258.474 5.77139 257.3 6.01933 256.232 6.48764C255.164 6.95596 254.23 7.60335 253.429 8.42979C252.655 9.25624 252.054 10.2342 251.627 11.3637C251.2 12.4656 250.986 13.6777 250.986 15C250.986 16.3224 251.2 17.5483 251.627 18.6777C252.054 19.7797 252.655 20.7438 253.429 21.5703C254.23 22.3967 255.164 23.0441 256.232 23.5124C257.3 23.9808 258.474 24.2287 259.756 24.2562H264V29.4629H259.635Z" fill="#141415"/>
</svg>
